<?xml version="1.0" encoding="iso-8859-1"?>
<!-- Generator: Adobe Illustrator 23.0.6, SVG Export Plug-In . SVG Version: 6.00 Build 0)  -->
<svg version="1.1" xmlns="http://www.w3.org/2000/svg" xmlns:xlink="http://www.w3.org/1999/xlink" x="0px" y="0px"
	 viewBox="0 0 80 80" style="enable-background:new 0 0 80 80;" xml:space="preserve">
<g id="&#x421;&#x43B;&#x43E;&#x439;_1" style="display:none;">
</g>
<g id="&#x421;&#x43B;&#x43E;&#x439;_2">
	<path style="fill:none;stroke:#000000;stroke-width:2;stroke-linejoin:round;stroke-miterlimit:10;" d="M41.889,10
		C44.222,10.75,45,12.655,45,14.313C45,15.244,41.889,16,38,16s-7-0.756-7-1.688c0-1.658,0.778-3.563,3.111-4.313"/>
	<path style="fill:none;stroke:#000000;stroke-width:2;stroke-linecap:round;stroke-linejoin:round;stroke-miterlimit:10;" d="
		M45,13c0.821,0.021,4.513,0.205,7.569,3.195c3.155,3.086,3.346,6.926,3.368,7.714c0,1.364,0,2.727,0,4.091"/>
	<path style="fill:none;stroke:#000000;stroke-width:2;stroke-linecap:round;stroke-linejoin:round;stroke-miterlimit:10;" d="
		M59,50.917v3.188c0,0-2.889,2.479-20.222,2.479c-2.44,0-4.588-0.161-6.474-0.432c-3.452-0.493-6.526,2.197-6.526,5.619v0.067
		c0,3.474,2.56,6.45,6.058,6.994c1.996,0.312,4.297,0.503,6.942,0.503c13,0,17.333-2.125,17.333-2.125v5.667
		c0,0-4.333,2.125-17.333,2.125C24.333,75,19,69.333,19,69.333C19,54.556,19,39.778,19,25c-0.059-0.601,0.545-5.47,4.302-9.039
		C26.409,13.009,30.206,12.987,31,13"/>
	<path style="fill:none;stroke:#000000;stroke-width:2;stroke-linecap:round;stroke-linejoin:round;stroke-miterlimit:10;" d="
		M32,66c0,0.667,0,1.333,0,2"/>
	<g>
		<path d="M32,60c-0.26,0-0.52-0.11-0.71-0.29C31.11,59.52,31,59.26,31,59c0-0.13,0.03-0.26,0.08-0.38
			c0.05-0.12,0.12-0.23,0.21-0.33c0.37-0.37,1.05-0.37,1.42,0c0.09,0.1,0.16,0.21,0.21,0.33C32.98,58.74,33,58.87,33,59
			c0,0.26-0.11,0.52-0.29,0.71C32.52,59.89,32.26,60,32,60z"/>
		<path d="M31,62.5c0-0.55,0.45-1,1-1l0,0c0.55,0,1,0.45,1,1l0,0c0,0.55-0.45,1-1,1l0,0C31.45,63.5,31,63.05,31,62.5z"/>
		<path d="M32,67c-0.26,0-0.52-0.11-0.71-0.29c-0.09-0.1-0.16-0.21-0.21-0.33C31.03,66.26,31,66.13,31,66
			c0-0.26,0.11-0.52,0.29-0.71c0.38-0.37,1.04-0.37,1.42,0C32.89,65.48,33,65.74,33,66c0,0.13-0.02,0.26-0.08,0.38
			c-0.05,0.12-0.12,0.23-0.21,0.33C32.52,66.89,32.26,67,32,67z"/>
	</g>
	<path style="fill:none;stroke:#000000;stroke-width:2;stroke-linecap:round;stroke-linejoin:round;stroke-miterlimit:10;" d="
		M32,57c0,0.667,0,1.333,0,2"/>
	<path style="fill:none;stroke:#000000;stroke-width:2;stroke-linecap:round;stroke-linejoin:round;stroke-miterlimit:10;" d="
		M48,66c0,0.667,0,1.333,0,2"/>
	<g>
		<path d="M48,60c-0.13,0-0.26-0.03-0.38-0.08c-0.12-0.05-0.23-0.12-0.33-0.21c-0.04-0.05-0.08-0.1-0.12-0.15
			c-0.04-0.06-0.07-0.12-0.09-0.18c-0.03-0.06-0.05-0.12-0.06-0.18C47.01,59.13,47,59.07,47,59c0-0.26,0.11-0.52,0.29-0.71
			c0.1-0.09,0.21-0.16,0.33-0.21c0.37-0.15,0.81-0.07,1.09,0.21C48.89,58.48,49,58.74,49,59c0,0.26-0.11,0.52-0.29,0.71
			C48.52,59.89,48.26,60,48,60z"/>
		<path d="M47,62.5c0-0.55,0.45-1,1-1l0,0c0.55,0,1,0.45,1,1l0,0c0,0.55-0.45,1-1,1l0,0C47.45,63.5,47,63.05,47,62.5z"/>
		<path d="M48,67c-0.13,0-0.26-0.03-0.38-0.08c-0.12-0.05-0.23-0.12-0.33-0.21c-0.09-0.1-0.16-0.21-0.21-0.33
			C47.03,66.26,47,66.13,47,66c0-0.13,0.03-0.26,0.08-0.38c0.05-0.12,0.12-0.23,0.21-0.33c0.1-0.09,0.21-0.16,0.33-0.21
			c0.37-0.15,0.81-0.06,1.09,0.21c0.09,0.1,0.16,0.21,0.21,0.33C48.97,65.74,49,65.87,49,66c0,0.13-0.03,0.26-0.08,0.38
			c-0.05,0.13-0.12,0.23-0.21,0.33C48.52,66.89,48.26,67,48,67z"/>
	</g>
	<path style="fill:none;stroke:#000000;stroke-width:2;stroke-linecap:round;stroke-linejoin:round;stroke-miterlimit:10;" d="
		M48,57c0,0.667,0,1.333,0,2"/>
	<path style="fill:none;stroke:#000000;stroke-width:2;stroke-linecap:round;stroke-linejoin:round;stroke-miterlimit:10;" d="
		M40,66c0,1,0,2,0,3"/>
	<g>
		<path d="M40,60c-0.26,0-0.52-0.11-0.71-0.29c-0.04-0.05-0.08-0.1-0.12-0.15c-0.04-0.06-0.07-0.12-0.09-0.18
			c-0.03-0.06-0.05-0.12-0.06-0.18C39.01,59.13,39,59.07,39,59c0-0.26,0.11-0.52,0.29-0.71c0.23-0.23,0.58-0.34,0.91-0.27
			c0.06,0.01,0.12,0.03,0.18,0.06c0.06,0.02,0.12,0.05,0.18,0.09c0.05,0.04,0.1,0.08,0.15,0.12C40.89,58.48,41,58.74,41,59
			c0,0.07-0.01,0.13-0.02,0.2c-0.01,0.06-0.03,0.12-0.06,0.18c-0.02,0.06-0.05,0.12-0.09,0.18c-0.04,0.05-0.08,0.1-0.12,0.15
			c-0.05,0.04-0.1,0.08-0.15,0.12c-0.06,0.04-0.12,0.07-0.18,0.09c-0.06,0.03-0.12,0.05-0.18,0.06C40.13,59.99,40.07,60,40,60z"/>
		<path d="M39,62.5c0-0.55,0.45-1,1-1l0,0c0.55,0,1,0.45,1,1l0,0c0,0.55-0.45,1-1,1l0,0C39.45,63.5,39,63.05,39,62.5z"/>
		<path d="M40,67c-0.26,0-0.52-0.11-0.71-0.29C39.11,66.52,39,66.26,39,66c0-0.26,0.11-0.52,0.29-0.71
			c0.23-0.23,0.58-0.34,0.91-0.27c0.06,0.01,0.12,0.03,0.18,0.06c0.06,0.02,0.12,0.05,0.18,0.09c0.05,0.04,0.1,0.08,0.15,0.12
			C40.89,65.48,41,65.74,41,66c0,0.26-0.11,0.52-0.29,0.71c-0.05,0.04-0.1,0.08-0.15,0.12c-0.06,0.04-0.12,0.07-0.18,0.09
			c-0.06,0.03-0.12,0.05-0.18,0.06C40.13,66.99,40.07,67,40,67z"/>
	</g>
	<path style="fill:none;stroke:#000000;stroke-width:2;stroke-linecap:round;stroke-linejoin:round;stroke-miterlimit:10;" d="
		M40,57c0,0.667,0,1.333,0,2"/>
	<path style="fill:none;stroke:#000000;stroke-width:2;stroke-linecap:round;stroke-linejoin:round;stroke-miterlimit:10;" d="
		M54,56c0,3.667,0,7.333,0,11"/>
	<path style="fill:none;stroke:#000000;stroke-width:2;stroke-linecap:round;stroke-linejoin:round;stroke-miterlimit:10;" d="
		M56,28l4.439,2.259C63.784,31.546,66,34.83,66,38.498v5.635C66,47.373,63.441,50,60.286,50H33.143C29.199,50,26,46.716,26,42.667
		v-7.333C26,31.284,29.199,28,33.143,28"/>
	<g>
		<path d="M33.14,29c-0.26,0-0.52-0.11-0.7-0.29c-0.19-0.19-0.3-0.45-0.3-0.71c0-0.26,0.11-0.52,0.3-0.71
			c0.37-0.37,1.04-0.37,1.41,0c0.19,0.19,0.29,0.45,0.29,0.71c0,0.26-0.1,0.52-0.29,0.71C33.66,28.89,33.41,29,33.14,29z"/>
		<path d="M47.46,29.48c-0.02-0.55,0.41-1.01,0.96-1.03l0,0c0.56-0.02,1.02,0.42,1.04,0.97l0,0c0.01,0.55-0.42,1.01-0.97,1.03l0,0
			c-0.01,0-0.02,0-0.03,0l0,0C47.92,30.45,47.47,30.02,47.46,29.48z M44.56,30.41L44.56,30.41c-0.55-0.03-0.98-0.5-0.96-1.05l0,0
			c0.03-0.55,0.5-0.98,1.05-0.95l0,0c0.55,0.02,0.98,0.49,0.95,1.04l0,0c-0.02,0.54-0.47,0.96-1,0.96l0,0
			C44.59,30.41,44.57,30.41,44.56,30.41z M40.63,30.06L40.63,30.06c-0.55-0.07-0.93-0.57-0.86-1.12l0,0
			c0.08-0.55,0.58-0.93,1.13-0.86l0,0c0.54,0.08,0.93,0.58,0.86,1.13l0,0c-0.07,0.5-0.5,0.86-0.99,0.86l0,0
			C40.72,30.07,40.68,30.07,40.63,30.06z M51.31,29.24c-0.1-0.54,0.26-1.06,0.81-1.16l0,0c0.54-0.09,1.06,0.27,1.16,0.82l0,0
			c0.09,0.54-0.27,1.06-0.82,1.15l0,0c-0.06,0.01-0.11,0.02-0.17,0.02l0,0C51.81,30.07,51.39,29.73,51.31,29.24z M36.78,29.39
			L36.78,29.39c-0.54-0.11-0.9-0.63-0.79-1.17l0,0c0.1-0.54,0.62-0.9,1.17-0.8l0,0c0.54,0.1,0.89,0.63,0.79,1.17l0,0
			c-0.09,0.48-0.51,0.81-0.98,0.81l0,0C36.91,29.4,36.85,29.4,36.78,29.39z"/>
		<path d="M56,29c-0.26,0-0.52-0.11-0.71-0.29c-0.09-0.1-0.16-0.21-0.21-0.33C55.03,28.26,55,28.13,55,28
			c0-0.13,0.03-0.26,0.08-0.38c0.05-0.12,0.12-0.23,0.21-0.33c0.1-0.09,0.21-0.16,0.33-0.21c0.24-0.1,0.52-0.1,0.76,0
			c0.12,0.05,0.23,0.12,0.33,0.21c0.09,0.1,0.16,0.21,0.21,0.33C56.97,27.74,57,27.87,57,28c0,0.26-0.11,0.52-0.29,0.71
			C56.52,28.89,56.26,29,56,29z"/>
	</g>
	<path style="fill:none;stroke:#000000;stroke-width:2;stroke-linecap:round;stroke-linejoin:round;stroke-miterlimit:10;" d="
		M60.25,50H38.688c-3.175,0-5.75-2.687-5.75-6v-3c0-3.313,2.575-6,5.75-6H60.25c3.175,0,5.75,2.687,5.75,6v3
		C66,47.313,63.425,50,60.25,50z"/>
	<path style="fill:none;stroke:#000000;stroke-width:2;stroke-linecap:round;stroke-linejoin:round;stroke-miterlimit:10;" d="
		M40.125,35C43.921,35,47,38.359,47,42.5S43.921,50,40.125,50"/>
	<path style="fill:none;stroke:#000000;stroke-width:2;stroke-linecap:round;stroke-linejoin:round;stroke-miterlimit:10;" d="
		M46.594,45.715C47.728,48.242,50.134,50,52.944,50C56.84,50,60,46.641,60,42.5S56.84,35,52.944,35c-2.81,0-5.216,1.758-6.35,4.285"
		/>
	<path d="M40.125,49.5c2.862,0,5.313-1.66,6.469-4.047C47.75,47.84,50.2,49.5,53.063,49.5H40.125z"/>
	<path d="M53.063,35.333c-2.862,0-5.313,1.66-6.469,4.047c-1.156-2.387-3.607-4.047-6.469-4.047H53.063z"/>
	<path d="M35.25,44h-1.5C33.336,44,33,43.664,33,43.25v-1.5c0-0.414,0.336-0.75,0.75-0.75h1.5c0.414,0,0.75,0.336,0.75,0.75v1.5
		C36,43.664,35.664,44,35.25,44z"/>
	<path d="M52.25,44h-1.5C50.336,44,50,43.664,50,43.25v-1.5c0-0.414,0.336-0.75,0.75-0.75h1.5c0.414,0,0.75,0.336,0.75,0.75v1.5
		C53,43.664,52.664,44,52.25,44z"/>
	<path style="fill:none;stroke:#000000;stroke-width:2;stroke-linecap:round;stroke-linejoin:round;stroke-miterlimit:10;" d="
		M34,10c0-1.333,0-2.667,0-4c2.667,0,5.333,0,8,0c0,1.333,0,2.667,0,4"/>
	<circle cx="38" cy="10" r="1"/>
</g>
</svg>