<?xml version="1.0" encoding="iso-8859-1"?>
<!-- Generator: Adobe Illustrator 23.0.6, SVG Export Plug-In . SVG Version: 6.00 Build 0)  -->
<svg version="1.1" xmlns="http://www.w3.org/2000/svg" xmlns:xlink="http://www.w3.org/1999/xlink" x="0px" y="0px"
	 viewBox="0 0 80 80" style="enable-background:new 0 0 80 80;" xml:space="preserve">
<g id="&#x421;&#x43B;&#x43E;&#x439;_1" style="display:none;">
</g>
<g id="&#x421;&#x43B;&#x43E;&#x439;_2">
	<path style="fill:none;stroke:#000000;stroke-width:2;stroke-linejoin:round;stroke-miterlimit:10;" d="M61,37
		c-0.76-0.435-2.541-1.6-3.457-3.837c-0.324-0.791-0.463-1.528-0.518-2.127c0-0.143,0-0.286,0-0.43"/>
	<path style="fill:none;stroke:#000000;stroke-width:2;stroke-linecap:round;stroke-linejoin:round;stroke-miterlimit:10;" d="
		M37,64c0.239-0.082,2.437-0.878,3-3c0.218-0.823,0.112-1.55,0-2"/>
	<path style="fill:none;stroke:#000000;stroke-width:2;stroke-linecap:round;stroke-linejoin:round;stroke-miterlimit:10;" d="
		M60.203,55.167L66,63.292c0,0-1.449,2.708-7.971,2.708c-11.078,0-16.667-4.063-16.667-4.063l-0.71-0.511"/>
	<path style="fill:none;stroke:#000000;stroke-width:2;stroke-linecap:round;stroke-linejoin:round;stroke-miterlimit:10;" d="
		M46,75c0-2.833,2.554-3.836,3.879-4.427c3.004-1.34,3.084-3.804,3.084-3.804L53,66.214"/>
	<path style="fill:none;stroke:#000000;stroke-width:2;stroke-linecap:round;stroke-linejoin:round;stroke-miterlimit:10;" d="
		M53,28.401c0.674,0.341,1.315,0.687,1.93,1.034C56.482,30.309,58.575,31,60,31c2.89,0,7-1.254,7-7.2C67,14,58,8,58,8l2,9
		c0,0-5.248-8.487-12.95-10c0,0,1.95,3,1.95,10c0.656,0.683-5.377-5.924-14-6c-8.55,0-10.75,5.8-10.75,5.8S20.621,17.054,16,11
		c0,4.54,3,10,3,10h-9c6.162,1.513,7.125,5.6,7.125,5.6s-2.85,4.2-2.85,9.8c0,1.767,0.123,4.965,2.396,7.998
		C19.233,47.814,22.885,48.757,24,49"/>
	<g>
		<path d="M34,24.89c-0.26,0-0.52-0.1-0.71-0.29C33.11,24.41,33,24.16,33,23.89c0-0.26,0.11-0.52,0.29-0.7
			c0.37-0.38,1.05-0.38,1.42,0c0.18,0.18,0.29,0.44,0.29,0.7c0,0.27-0.11,0.52-0.29,0.71C34.52,24.79,34.26,24.89,34,24.89z"/>
		<path d="M49.04,27.74c-0.51-0.2-0.77-0.78-0.57-1.29l0,0c0.2-0.52,0.77-0.78,1.29-0.58l0,0c0.51,0.2,0.77,0.78,0.58,1.29l0,0
			c-0.16,0.4-0.54,0.65-0.94,0.65l0,0C49.28,27.8,49.16,27.78,49.04,27.74z M45.4,26.56c-0.53-0.15-0.85-0.7-0.7-1.23l0,0
			c0.14-0.53,0.69-0.85,1.22-0.7l0,0c0.53,0.14,0.85,0.69,0.71,1.22l0,0c-0.12,0.45-0.53,0.74-0.97,0.74l0,0
			C45.58,26.59,45.49,26.58,45.4,26.56z M41.65,25.72c-0.55-0.09-0.91-0.62-0.81-1.16l0,0c0.09-0.54,0.61-0.9,1.16-0.81l0,0l0,0l0,0
			c0.54,0.1,0.9,0.62,0.81,1.16l0,0c-0.09,0.49-0.51,0.83-0.99,0.83l0,0C41.76,25.74,41.71,25.73,41.65,25.72z M37.82,25.19
			L37.82,25.19c-0.55-0.06-0.95-0.55-0.89-1.1l0,0c0.06-0.55,0.55-0.95,1.1-0.89l0,0l0,0l0,0c0.55,0.05,0.95,0.55,0.89,1.1l0,0
			c-0.05,0.51-0.49,0.89-0.99,0.89l0,0C37.89,25.19,37.86,25.19,37.82,25.19z"/>
		<path d="M53,29.4c-0.13,0-0.26-0.03-0.38-0.08c-0.12-0.05-0.23-0.12-0.33-0.21C52.11,28.92,52,28.66,52,28.4
			c0-0.26,0.11-0.52,0.29-0.71c0.1-0.09,0.21-0.16,0.33-0.21c0.18-0.08,0.38-0.1,0.58-0.06c0.06,0.01,0.12,0.03,0.18,0.06
			c0.06,0.02,0.12,0.05,0.18,0.09c0.05,0.04,0.1,0.08,0.15,0.12C53.89,27.88,54,28.14,54,28.4c0,0.26-0.11,0.52-0.29,0.71
			c-0.05,0.04-0.1,0.09-0.15,0.12c-0.06,0.04-0.12,0.07-0.18,0.09c-0.06,0.03-0.12,0.05-0.18,0.06C53.13,29.39,53.07,29.4,53,29.4z"
			/>
	</g>
	<path style="fill:none;stroke:#000000;stroke-width:2;stroke-linecap:round;stroke-linejoin:round;stroke-miterlimit:10;" d="
		M30.61,34C29.311,31.05,28,29,28,29l6,3c0,0,0.225-5.4-4.05-8.2c1.424,0,2.772,0.032,4.05,0.093"/>
	<g>
		<path d="M33,43c-0.26,0-0.52-0.11-0.71-0.29c-0.09-0.1-0.16-0.21-0.21-0.33C32.03,42.26,32,42.13,32,42
			c0-0.13,0.03-0.26,0.08-0.38c0.05-0.12,0.12-0.23,0.21-0.33c0.28-0.27,0.73-0.36,1.09-0.21c0.12,0.05,0.23,0.12,0.33,0.21
			c0.09,0.1,0.16,0.2,0.21,0.33C33.97,41.74,34,41.87,34,42c0,0.13-0.03,0.26-0.08,0.38c-0.05,0.13-0.12,0.23-0.21,0.33
			c-0.1,0.09-0.21,0.16-0.33,0.21C33.26,42.97,33.13,43,33,43z"/>
		<path d="M31.13,38.21L31.13,38.21L31.13,38.21c-0.16-0.53,0.13-1.09,0.66-1.25l0,0c0.53-0.16,1.09,0.13,1.25,0.66l0,0
			c0.16,0.53-0.13,1.09-0.66,1.25l0,0c-0.1,0.03-0.2,0.05-0.3,0.05l0,0C31.66,38.92,31.26,38.64,31.13,38.21z"/>
		<path d="M30.61,35c-0.13,0-0.26-0.03-0.38-0.08c-0.12-0.05-0.23-0.12-0.33-0.21c-0.18-0.19-0.29-0.45-0.29-0.71
			c0-0.26,0.11-0.52,0.29-0.71c0.1-0.09,0.21-0.16,0.33-0.21c0.37-0.16,0.81-0.07,1.09,0.21c0.18,0.19,0.29,0.45,0.29,0.71
			c0,0.26-0.11,0.52-0.29,0.71C31.13,34.89,30.87,35,30.61,35z"/>
	</g>
	<path style="fill:none;stroke:#000000;stroke-width:2;stroke-linecap:round;stroke-linejoin:round;stroke-miterlimit:10;" d="
		M33,48c0.162-1.264,0.337-3.405,0-6"/>
	<path style="fill:none;stroke:#000000;stroke-width:2;stroke-linecap:round;stroke-linejoin:round;stroke-miterlimit:10;" d="
		M33,48.227C33,46.114,31.5,44,28.5,44c-2.486,0-4.5,2.208-4.5,4.932c0,2.724,2.25,4.932,5.25,4.932H30c0,0,0,5.636-1.5,11.273
		C27.973,67.118,27,69.364,27,75"/>
	<circle style="fill:none;stroke:#000000;stroke-width:2;stroke-miterlimit:10;" cx="46" cy="42" r="7"/>
	<path style="fill:none;stroke:#000000;stroke-width:2;stroke-miterlimit:10;" d="M57.531,49C61.104,49,64,46.089,64,42.5
		S61.104,36,57.531,36c-2.359,0-4.402,1.281-5.531,3.176"/>
	<path style="fill:none;stroke:#000000;stroke-width:2;stroke-linecap:round;stroke-linejoin:round;stroke-miterlimit:10;" d="
		M53,45c0.448,0.062,1.02,0.205,1.607,0.536C56.435,46.565,56.908,48.567,57,49c1,0,2,0,3,0c1.646,0,3,1.354,3,3s-1.354,3-3,3
		c-2,0-4,0-6,0"/>
	<circle cx="47.5" cy="42.5" r="1.5"/>
	<circle cx="59.5" cy="42.5" r="1.5"/>
</g>
</svg>